<svg width="66" height="66" viewBox="0 0 66 66" fill="none" xmlns="http://www.w3.org/2000/svg">
<path fill-rule="evenodd" clip-rule="evenodd" d="M29 0C26.7909 0 25 1.79086 25 4V9.30739C23.9342 9.66714 22.9006 10.0968 21.9046 10.5909L18.1508 6.83705C16.5887 5.27495 14.056 5.27495 12.4939 6.83705L6.83706 12.4939C5.27497 14.056 5.27497 16.5887 6.83706 18.1508L10.5909 21.9046C10.0968 22.9006 9.66714 23.9342 9.30739 25H4C1.79086 25 0 26.7909 0 29V37C0 39.2091 1.79086 41 4 41H9.30739C9.66714 42.0658 10.0968 43.0994 10.5909 44.0954L6.83705 47.8492C5.27496 49.4113 5.27496 51.944 6.83705 53.5061L12.4939 59.1629C14.056 60.725 16.5887 60.725 18.1508 59.1629L21.9046 55.4091C22.9006 55.9032 23.9342 56.3329 25 56.6926V62C25 64.2091 26.7909 66 29 66H37C39.2091 66 41 64.2091 41 62V56.6926C42.0658 56.3329 43.0994 55.9032 44.0954 55.4091L47.8493 59.1629C49.4114 60.725 51.944 60.725 53.5061 59.1629L59.163 53.5061C60.7251 51.944 60.7251 49.4113 59.163 47.8492L55.4091 44.0954C55.9032 43.0994 56.3329 42.0658 56.6926 41H62C64.2091 41 66 39.2091 66 37V29C66 26.7909 64.2091 25 62 25H56.6926C56.3329 23.9342 55.9032 22.9006 55.4091 21.9046L59.163 18.1508C60.7251 16.5887 60.7251 14.056 59.163 12.4939L53.5061 6.83705C51.944 5.27495 49.4113 5.27495 47.8492 6.83705L44.0954 10.5909C43.0994 10.0968 42.0658 9.66714 41 9.30739V4C41 1.79086 39.2091 0 37 0H29ZM33 43C38.5228 43 43 38.5228 43 33C43 27.4772 38.5228 23 33 23C27.4772 23 23 27.4772 23 33C23 38.5228 27.4772 43 33 43Z" fill="white"/>
</svg>
